<svg xmlns="http://www.w3.org/2000/svg" viewBox="0 0 397.7 311.7">
  <linearGradient id="a" x1="90.1%" y1="35.1%" x2="9.9%" y2="64.9%" gradientUnits="userSpaceOnUse">
    <stop offset="0" stop-color="#00FFA3"/>
    <stop offset="1" stop-color="#DC1FFF"/>
  </linearGradient>
  <linearGradient id="b" x1="90.1%" y1="35.1%" x2="9.9%" y2="64.9%" gradientUnits="userSpaceOnUse">
    <stop offset="0" stop-color="#00FFA3"/>
    <stop offset="1" stop-color="#DC1FFF"/>
  </linearGradient>
  <linearGradient id="c" x1="90.1%" y1="35.1%" x2="9.9%" y2="64.9%" gradientUnits="userSpaceOnUse">
    <stop offset="0" stop-color="#00FFA3"/>
    <stop offset="1" stop-color="#DC1FFF"/>
  </linearGradient>
  <path fill="url(#a)" d="M64.6 237.9a13 13 0 0 1 9.2-3.8h317.4c5.8 0 8.7 7 4.6 11.1l-62.7 62.7a13 13 0 0 1-9.2 3.8H6.5c-5.8 0-8.7-7-4.6-11.1z"/>
  <path fill="url(#b)" d="M64.6 3.8A13.3 13.3 0 0 1 73.8 0h317.4c5.8 0 8.7 7 4.6 11.1l-62.7 62.7a13 13 0 0 1-9.2 3.8H6.5c-5.8 0-8.7-7-4.6-11.1z"/>
  <path fill="url(#c)" d="M333.1 120.1a13 13 0 0 0-9.2-3.8H6.5c-5.8 0-8.7 7-4.6 11.1l62.7 62.7a13 13 0 0 0 9.2 3.8h317.4c5.8 0 8.7-7 4.6-11.1z"/>
</svg>
